<?xml version="1.0" ?><svg id="Layer_1" style="enable-background:new 0 0 512 512;" version="1.1" viewBox="0 0 512 512" xml:space="preserve" xmlns="http://www.w3.org/2000/svg" xmlns:xlink="http://www.w3.org/1999/xlink"><style type="text/css">
	.st0{fill:#1EF6F6;}
	.st1{fill:#FDDD7B;}
	.st2{fill:#EAF3F2;}
	.st3{fill:#D4FF93;}
	.st4{fill:#FD535F;}
	.st5{stroke:#000000;stroke-width:2;stroke-linecap:round;stroke-linejoin:round;stroke-miterlimit:10;}
	.st6{fill:none;stroke:#000000;stroke-width:2;stroke-linecap:round;stroke-linejoin:round;stroke-miterlimit:10;}
	.st7{fill:#1EF6F6;stroke:#000000;stroke-width:2;stroke-linecap:round;stroke-linejoin:round;stroke-miterlimit:10;}
</style><g><g><polygon class="st1" points="398.74,201.18 326.92,268.98 342.05,366.59 255.38,319.23 167.23,363.78 185.48,266.72     115.87,196.65 213.83,184.02 258.95,96.16 301.24,185.42   "/><path d="M342.05,374.31c-1.27,0-2.55-0.31-3.71-0.94l-83.11-45.41l-84.52,42.72c-2.62,1.33-5.77,1.05-8.13-0.72    c-2.35-1.77-3.5-4.72-2.95-7.61l17.5-93.07l-66.75-67.18c-2.07-2.09-2.78-5.17-1.83-7.95c0.95-2.78,3.4-4.78,6.32-5.16    l93.93-12.11l43.27-84.25c1.34-2.62,4.07-4.41,7-4.2c2.94,0.05,5.6,1.76,6.86,4.42l40.55,85.58l93.49,15.12    c2.91,0.47,5.29,2.55,6.15,5.36c0.86,2.81,0.06,5.87-2.08,7.89l-68.87,65l14.51,93.59c0.45,2.91-0.79,5.82-3.2,7.51    C345.17,373.84,343.61,374.31,342.05,374.31z M255.38,311.5c1.28,0,2.55,0.32,3.71,0.94l72.93,39.85l-12.73-82.13    c-0.39-2.51,0.48-5.06,2.33-6.81l60.44-57.04l-82.05-13.27c-2.51-0.41-4.66-2.02-5.75-4.32l-35.58-75.11l-37.97,73.94    c-1.16,2.26-3.37,3.8-5.89,4.14l-82.43,10.62l58.58,58.96c1.79,1.8,2.58,4.38,2.11,6.87l-15.36,81.68l74.17-37.49    C252.99,311.78,254.19,311.5,255.38,311.5z"/></g><g><polyline class="st0" points="385.83,331.58 398.06,329.23 420.55,277.97 447.56,327 503.27,332.55 464.98,373.39 476.92,428.09     426.25,404.29 377.92,432.55 372.76,402.35   "/><path d="M377.92,440.28c-1.11,0-2.23-0.24-3.26-0.72c-2.3-1.07-3.93-3.2-4.35-5.7l-5.16-30.21c-0.72-4.2,2.11-8.2,6.32-8.91    c4.26-0.71,8.2,2.11,8.92,6.32l3.28,19.2l38.69-22.62c2.2-1.28,4.89-1.41,7.18-0.32l36.5,17.14l-8.6-39.4    c-0.54-2.48,0.17-5.07,1.91-6.93l27.58-29.42l-40.13-3.99c-2.53-0.25-4.78-1.74-6-3.96l-19.46-35.32l-16.2,36.92    c-1.02,2.33-3.12,4.01-5.62,4.49l-12.23,2.35c-4.17,0.79-8.24-1.95-9.04-6.14c-0.8-4.19,1.94-8.24,6.13-9.05l8.24-1.58    l20.85-47.55c1.18-2.69,3.79-4.48,6.73-4.62c3.09-0.26,5.7,1.42,7.12,3.99l25.05,45.48l51.66,5.15c2.93,0.29,5.43,2.22,6.47,4.97    s0.42,5.86-1.6,8l-35.51,37.88l11.07,50.73c0.63,2.87-0.43,5.85-2.73,7.68c-2.3,1.84-5.45,2.2-8.1,0.96l-47-22.06l-44.82,26.21    C380.62,439.92,379.27,440.28,377.92,440.28z"/></g><g><polyline class="st4" points="126.17,331.58 113.94,329.23 91.45,277.97 64.44,327 8.73,332.55 47.02,373.39 35.08,428.09     85.75,404.29 134.08,432.55 139.24,402.35   "/><path d="M134.08,440.28c-1.35,0-2.7-0.35-3.9-1.06l-44.82-26.21l-47,22.06c-2.65,1.25-5.8,0.88-8.1-0.96    c-2.3-1.83-3.36-4.81-2.73-7.68l11.07-50.73L3.09,337.83c-2.01-2.14-2.63-5.24-1.6-8s3.54-4.68,6.47-4.97l51.67-5.15l25.05-45.48    c1.41-2.57,4.12-4.26,7.12-3.99c2.94,0.14,5.55,1.92,6.73,4.62l20.86,47.55l8.24,1.58c4.19,0.81,6.93,4.86,6.13,9.05    s-4.86,6.93-9.04,6.14l-12.23-2.35c-2.5-0.48-4.6-2.16-5.62-4.49l-16.2-36.92l-19.46,35.32c-1.23,2.23-3.47,3.71-6,3.96    l-40.13,3.99l27.58,29.42c1.74,1.86,2.46,4.44,1.91,6.93l-8.6,39.4l36.5-17.14c2.3-1.09,4.99-0.96,7.18,0.32l38.69,22.62    l3.28-19.2c0.72-4.2,4.68-7.03,8.92-6.32c4.21,0.72,7.03,4.71,6.32,8.91l-5.16,30.21c-0.43,2.51-2.05,4.63-4.35,5.7    C136.31,440.04,135.19,440.28,134.08,440.28z"/></g><g><path d="M66.48,146.12c-0.99,0-1.99-0.19-2.96-0.59c-3.94-1.64-5.8-6.15-4.17-10.09c0.29-0.7,29.87-70.22,96.89-55.69    c4.17,0.91,6.82,5.02,5.91,9.19c-0.9,4.18-5.02,6.83-9.19,5.92c-54.29-11.83-78.35,44.12-79.34,46.51    C72.38,144.33,69.51,146.12,66.48,146.12z"/></g><g><path d="M445.08,152.18c-3.79,0-7.1-2.79-7.64-6.65c-7.77-55.25-68.49-58.26-71.07-58.36c-4.26-0.17-7.59-3.76-7.42-8.02    c0.17-4.26,3.81-7.57,8.02-7.42c0.76,0.03,76.23,3.76,85.77,71.64c0.6,4.23-2.35,8.13-6.58,8.73    C445.81,152.15,445.44,152.18,445.08,152.18z"/></g></g></svg>